<svg aria-label="architecture diagram" role="img" viewBox="0 0 1000 360" xmlns="http://www.w3.org/2000/svg"><defs><marker id="a" markerHeight="8" markerWidth="8" orient="auto" refX="7" refY="4"><path d="M0 0 L8 4 L0 8 Z" fill="#64748B"/></marker></defs><style>text{font-family:Lato,'Noto Sans TC','PingFang TC','Microsoft JhengHei',sans-serif}</style><rect fill="#EFF6FF" height="80" rx="10" stroke="#1D4ED8" stroke-width="2" width="190" x="40" y="110"/><text fill="#111827" font-size="16" font-weight="700" text-anchor="middle" x="135" y="150">承辦／科長</text><rect fill="#ECFDF5" height="110" rx="10" stroke="#14B8A6" stroke-width="2" width="240" x="380" y="95"/><text fill="#111827" font-size="16" font-weight="700" text-anchor="middle" x="500" y="140">Daily Media Brief</text><text fill="#111827" font-size="16" font-weight="700" text-anchor="middle" x="500" y="162">Skill</text><text fill="#64748B" font-size="11" text-anchor="middle" x="500" y="192">待審、可解釋、可調整</text><rect fill="#F8FAFC" height="80" rx="10" stroke="#64748B" stroke-width="2" width="190" x="770" y="110"/><text fill="#111827" font-size="16" font-weight="700" text-anchor="middle" x="865" y="150">搜尋／原文來源</text><rect fill="#EFF6FF" height="70" rx="10" stroke="#1D4ED8" stroke-width="2" width="190" x="40" y="260"/><text fill="#111827" font-size="16" font-weight="700" text-anchor="middle" x="135" y="295">LINE 實際發布</text><rect fill="#F8FAFC" height="70" rx="10" stroke="#64748B" stroke-width="2" width="240" x="380" y="260"/><text fill="#111827" font-size="16" font-weight="700" text-anchor="middle" x="500" y="295">部署能力</text><text fill="#64748B" font-size="11" text-anchor="middle" x="500" y="317">排程／LINE API／身分權限</text><line marker-end="url(#a)" stroke="#64748B" stroke-width="2" x1="230" x2="380" y1="130" y2="130"/><text fill="#475569" font-size="11" text-anchor="middle" x="305" y="123">自然語言任務</text><line marker-end="url(#a)" stroke="#64748B" stroke-width="2" x1="380" x2="230" y1="175" y2="175"/><text fill="#475569" font-size="11" text-anchor="middle" x="305" y="168">待審清單／調整</text><line marker-end="url(#a)" stroke="#64748B" stroke-width="2" x1="620" x2="770" y1="150" y2="150"/><text fill="#475569" font-size="11" text-anchor="middle" x="695" y="143">開原文／取證</text><line marker-end="url(#a)" stroke="#64748B" stroke-width="2" x1="770" x2="620" y1="180" y2="180"/><text fill="#475569" font-size="11" text-anchor="middle" x="695" y="173">來源內容</text><line marker-end="url(#a)" stroke="#64748B" stroke-width="2" x1="135" x2="135" y1="190" y2="260"/><text fill="#475569" font-size="11" text-anchor="middle" x="135" y="218">明確通過後</text><line marker-end="url(#a)" stroke="#64748B" stroke-dasharray="7 5" stroke-width="2" x1="500" x2="500" y1="260" y2="205"/><text fill="#475569" font-size="11" text-anchor="middle" x="500" y="225">部署能力</text></svg>